<svg width="48" height="48" viewBox="0 0 48 48" fill="none" xmlns="http://www.w3.org/2000/svg">
<path d="M11.3001 20.05L15.2001 21.7C15.6668 20.7666 16.1501 19.8666 16.6501 19C17.1501 18.1333 17.7001 17.2666 18.3001 16.4L15.5001 15.85L11.3001 20.05ZM18.4001 24.2L24.1001 29.85C25.5001 29.3166 27.0001 28.5 28.6001 27.4C30.2001 26.3 31.7001 25.05 33.1001 23.65C35.4334 21.3166 37.2584 18.725 38.5751 15.875C39.8918 13.025 40.4668 10.4 40.3001 7.99997C37.9001 7.8333 35.2668 8.4083 32.4001 9.72497C29.5334 11.0416 26.9334 12.8666 24.6001 15.2C23.2001 16.6 21.9501 18.1 20.8501 19.7C19.7501 21.3 18.9334 22.8 18.4001 24.2ZM27.3001 20.95C26.5334 20.1833 26.1501 19.2416 26.1501 18.125C26.1501 17.0083 26.5334 16.0666 27.3001 15.3C28.0668 14.5333 29.0168 14.15 30.1501 14.15C31.2834 14.15 32.2334 14.5333 33.0001 15.3C33.7668 16.0666 34.1501 17.0083 34.1501 18.125C34.1501 19.2416 33.7668 20.1833 33.0001 20.95C32.2334 21.7166 31.2834 22.1 30.1501 22.1C29.0168 22.1 28.0668 21.7166 27.3001 20.95ZM28.2501 37L32.4501 32.8L31.9001 30C31.0334 30.6 30.1668 31.1416 29.3001 31.625C28.4334 32.1083 27.5334 32.5833 26.6001 33.05L28.2501 37ZM43.9001 4.34997C44.5334 8.3833 44.1418 12.3083 42.7251 16.125C41.3084 19.9416 38.8668 23.5833 35.4001 27.05L36.4001 32C36.5334 32.6666 36.5001 33.3166 36.3001 33.95C36.1001 34.5833 35.7668 35.1333 35.3001 35.6L26.9001 44L22.7001 34.15L14.1501 25.6L4.3001 21.4L12.6501 13C13.1168 12.5333 13.6751 12.2 14.3251 12C14.9751 11.8 15.6334 11.7666 16.3001 11.9L21.2501 12.9C24.7168 9.4333 28.3501 6.9833 32.1501 5.54997C35.9501 4.11663 39.8668 3.71663 43.9001 4.34997ZM7.8501 31.95C9.01676 30.7833 10.4418 30.1916 12.1251 30.175C13.8084 30.1583 15.2334 30.7333 16.4001 31.9C17.5668 33.0666 18.1418 34.4916 18.1251 36.175C18.1084 37.8583 17.5168 39.2833 16.3501 40.45C15.5168 41.2833 14.1251 42 12.1751 42.6C10.2251 43.2 7.53343 43.7333 4.1001 44.2C4.56676 40.7666 5.1001 38.075 5.7001 36.125C6.3001 34.175 7.01676 32.7833 7.8501 31.95ZM10.7001 34.75C10.3668 35.0833 10.0334 35.6916 9.7001 36.575C9.36676 37.4583 9.13343 38.35 9.0001 39.25C9.9001 39.1166 10.7918 38.8916 11.6751 38.575C12.5584 38.2583 13.1668 37.9333 13.5001 37.6C13.9001 37.2 14.1168 36.7166 14.1501 36.15C14.1834 35.5833 14.0001 35.1 13.6001 34.7C13.2001 34.3 12.7168 34.1083 12.1501 34.125C11.5834 34.1416 11.1001 34.35 10.7001 34.75Z" fill="url(#paint0_linear_413_531)"/>
<defs>
<linearGradient id="paint0_linear_413_531" x1="43.5105" y1="29.324" x2="4.77702" y2="18.9578" gradientUnits="userSpaceOnUse">
<stop offset="0.16" stop-color="#BBE4EA"/>
<stop offset="0.66" stop-color="#FFE4E4"/>
</linearGradient>
</defs>
</svg>
