<svg width="48" height="49" viewBox="0 0 48 49" fill="none" xmlns="http://www.w3.org/2000/svg">
<path d="M16 40.5H32V34.5C32 32.3 31.2167 30.4167 29.65 28.85C28.0833 27.2833 26.2 26.5 24 26.5C21.8 26.5 19.9167 27.2833 18.35 28.85C16.7833 30.4167 16 32.3 16 34.5V40.5ZM24 22.5C26.2 22.5 28.0833 21.7167 29.65 20.15C31.2167 18.5833 32 16.7 32 14.5V8.5H16V14.5C16 16.7 16.7833 18.5833 18.35 20.15C19.9167 21.7167 21.8 22.5 24 22.5ZM8 44.5V40.5H12V34.5C12 32.4667 12.475 30.5583 13.425 28.775C14.375 26.9917 15.7 25.5667 17.4 24.5C15.7 23.4333 14.375 22.0083 13.425 20.225C12.475 18.4417 12 16.5333 12 14.5V8.5H8V4.5H40V8.5H36V14.5C36 16.5333 35.525 18.4417 34.575 20.225C33.625 22.0083 32.3 23.4333 30.6 24.5C32.3 25.5667 33.625 26.9917 34.575 28.775C35.525 30.5583 36 32.4667 36 34.5V40.5H40V44.5H8Z" fill="url(#paint0_linear_413_559)"/>
<defs>
<linearGradient id="paint0_linear_413_559" x1="39.4548" y1="29.6764" x2="7.78137" y2="22.8869" gradientUnits="userSpaceOnUse">
<stop offset="0.16" stop-color="#BBE4EA"/>
<stop offset="0.66" stop-color="#FFE4E4"/>
</linearGradient>
</defs>
</svg>
