<svg width="48" height="49" viewBox="0 0 48 49" fill="none" xmlns="http://www.w3.org/2000/svg">
<path d="M16.8 42.5C13.7667 42.5 11.2083 41.4583 9.125 39.375C7.04167 37.2917 6 34.7333 6 31.7C6 30.4333 6.21667 29.2 6.65 28C7.08333 26.8 7.7 25.7167 8.5 24.75L15.6 16.2L10.75 6.5H37.25L32.4 16.2L39.5 24.75C40.3 25.7167 40.9167 26.8 41.35 28C41.7833 29.2 42 30.4333 42 31.7C42 34.7333 40.95 37.2917 38.85 39.375C36.75 41.4583 34.2 42.5 31.2 42.5H16.8ZM24 32.5C22.9 32.5 21.9583 32.1083 21.175 31.325C20.3917 30.5417 20 29.6 20 28.5C20 27.4 20.3917 26.4583 21.175 25.675C21.9583 24.8917 22.9 24.5 24 24.5C25.1 24.5 26.0417 24.8917 26.825 25.675C27.6083 26.4583 28 27.4 28 28.5C28 29.6 27.6083 30.5417 26.825 31.325C26.0417 32.1083 25.1 32.5 24 32.5ZM19.25 14.5H28.75L30.75 10.5H17.25L19.25 14.5ZM16.8 38.5H31.2C33.1 38.5 34.7083 37.8417 36.025 36.525C37.3417 35.2083 38 33.6 38 31.7C38 30.9 37.8583 30.125 37.575 29.375C37.2917 28.625 36.9 27.95 36.4 27.35L29.05 18.5H19L11.6 27.3C11.1 27.9 10.7083 28.5833 10.425 29.35C10.1417 30.1167 10 30.9 10 31.7C10 33.6 10.6583 35.2083 11.975 36.525C13.2917 37.8417 14.9 38.5 16.8 38.5Z" fill="white"/>
</svg>
