<svg width="48" height="49" viewBox="0 0 48 49" fill="none" xmlns="http://www.w3.org/2000/svg">
<path d="M23.75 40.5C23.8833 40.5 24.0166 40.4667 24.15 40.4C24.2833 40.3333 24.3833 40.2667 24.45 40.2L40.85 23.8C41.25 23.4 41.5416 22.95 41.725 22.45C41.9083 21.95 42 21.45 42 20.95C42 20.4167 41.9083 19.9083 41.725 19.425C41.5416 18.9417 41.25 18.5167 40.85 18.15L32.35 9.65C31.9833 9.25 31.5583 8.95833 31.075 8.775C30.5916 8.59167 30.0833 8.5 29.55 8.5C29.05 8.5 28.55 8.59167 28.05 8.775C27.55 8.95833 27.1 9.25 26.7 9.65L26.15 10.2L29.85 13.95C30.35 14.4167 30.7166 14.95 30.95 15.55C31.1833 16.15 31.3 16.7833 31.3 17.45C31.3 18.85 30.825 20.025 29.875 20.975C28.925 21.925 27.75 22.4 26.35 22.4C25.6833 22.4 25.0416 22.2833 24.425 22.05C23.8083 21.8167 23.2666 21.4667 22.8 21L19.05 17.3L10.3 26.05C10.2 26.15 10.125 26.2583 10.075 26.375C10.025 26.4917 9.99998 26.6167 9.99998 26.75C9.99998 27.0167 10.1 27.2583 10.3 27.475C10.5 27.6917 10.7333 27.8 11 27.8C11.1333 27.8 11.2666 27.7667 11.4 27.7C11.5333 27.6333 11.6333 27.5667 11.7 27.5L18.5 20.7L21.3 23.5L14.55 30.3C14.45 30.4 14.375 30.5083 14.325 30.625C14.275 30.7417 14.25 30.8667 14.25 31C14.25 31.2667 14.35 31.5 14.55 31.7C14.75 31.9 14.9833 32 15.25 32C15.3833 32 15.5166 31.9667 15.65 31.9C15.7833 31.8333 15.8833 31.7667 15.95 31.7L22.75 24.95L25.55 27.75L18.8 34.55C18.7 34.6167 18.625 34.7167 18.575 34.85C18.525 34.9833 18.5 35.1167 18.5 35.25C18.5 35.5167 18.6 35.75 18.8 35.95C19 36.15 19.2333 36.25 19.5 36.25C19.6333 36.25 19.7583 36.225 19.875 36.175C19.9916 36.125 20.1 36.05 20.2 35.95L27 29.2L29.8 32L23 38.8C22.9 38.9 22.825 39.0083 22.775 39.125C22.725 39.2417 22.7 39.3667 22.7 39.5C22.7 39.7667 22.8083 40 23.025 40.2C23.2416 40.4 23.4833 40.5 23.75 40.5ZM23.7 44.5C22.4666 44.5 21.375 44.0917 20.425 43.275C19.475 42.4583 18.9166 41.4333 18.75 40.2C17.6166 40.0333 16.6666 39.5667 15.9 38.8C15.1333 38.0333 14.6666 37.0833 14.5 35.95C13.3666 35.7833 12.425 35.3083 11.675 34.525C10.925 33.7417 10.4666 32.8 10.3 31.7C9.03331 31.5333 7.99998 30.9833 7.19998 30.05C6.39998 29.1167 5.99998 28.0167 5.99998 26.75C5.99998 26.0833 6.12498 25.4417 6.37498 24.825C6.62498 24.2083 6.98331 23.6667 7.44998 23.2L19.05 11.65L25.6 18.2C25.6666 18.3 25.7666 18.375 25.9 18.425C26.0333 18.475 26.1666 18.5 26.3 18.5C26.6 18.5 26.85 18.4083 27.05 18.225C27.25 18.0417 27.35 17.8 27.35 17.5C27.35 17.3667 27.325 17.2333 27.275 17.1C27.225 16.9667 27.15 16.8667 27.05 16.8L19.9 9.65C19.5333 9.25 19.1083 8.95833 18.625 8.775C18.1416 8.59167 17.6333 8.5 17.1 8.5C16.6 8.5 16.1 8.59167 15.6 8.775C15.1 8.95833 14.65 9.25 14.25 9.65L7.19998 16.75C6.89998 17.05 6.64998 17.4 6.44998 17.8C6.24998 18.2 6.11665 18.6 6.04998 19C5.98331 19.4 5.98331 19.8083 6.04998 20.225C6.11665 20.6417 6.24998 21.0333 6.44998 21.4L3.54998 24.3C2.98331 23.5333 2.56665 22.6917 2.29998 21.775C2.03331 20.8583 1.93331 19.9333 1.99998 19C2.06665 18.0667 2.29998 17.1583 2.69998 16.275C3.09998 15.3917 3.64998 14.6 4.34998 13.9L11.4 6.85C12.2 6.08333 13.0916 5.5 14.075 5.1C15.0583 4.7 16.0666 4.5 17.1 4.5C18.1333 4.5 19.1416 4.7 20.125 5.1C21.1083 5.5 21.9833 6.08333 22.75 6.85L23.3 7.4L23.85 6.85C24.65 6.08333 25.5416 5.5 26.525 5.1C27.5083 4.7 28.5166 4.5 29.55 4.5C30.5833 4.5 31.5916 4.7 32.575 5.1C33.5583 5.5 34.4333 6.08333 35.2 6.85L43.65 15.3C44.4166 16.0667 45 16.95 45.4 17.95C45.8 18.95 46 19.9667 46 21C46 22.0333 45.8 23.0417 45.4 24.025C45 25.0083 44.4166 25.8833 43.65 26.65L27.25 43C26.7833 43.4667 26.2416 43.8333 25.625 44.1C25.0083 44.3667 24.3666 44.5 23.7 44.5Z" fill="url(#paint0_linear_413_536)"/>
<defs>
<linearGradient id="paint0_linear_413_536" x1="45.25" y1="29.6764" x2="3.32284" y2="17.313" gradientUnits="userSpaceOnUse">
<stop offset="0.16" stop-color="#BBE4EA"/>
<stop offset="0.66" stop-color="#FFE4E4"/>
</linearGradient>
</defs>
</svg>
